<svg width="128" height="128" viewBox="0 0 128 128" fill="none" xmlns="http://www.w3.org/2000/svg">
  <defs>
    <linearGradient id="bg" x1="18" y1="10" x2="110" y2="120" gradientUnits="userSpaceOnUse">
      <stop stop-color="#E5E7EB"/>
      <stop offset="1" stop-color="#9CA3AF"/>
    </linearGradient>
    <filter id="shadow" x="-20%" y="-20%" width="140%" height="140%" color-interpolation-filters="sRGB">
      <feDropShadow dx="0" dy="10" stdDeviation="10" flood-color="#000000" flood-opacity="0.18"/>
    </filter>
  </defs>

  <rect x="12" y="12" width="104" height="104" rx="26" fill="url(#bg)" filter="url(#shadow)"/>
  <path
    d="M64 36c-12.4 0-22.5 7-23.5 18.7-.1 1.6 1.2 2.9 2.8 2.9h8.2c1.4 0 2.5-1 2.8-2.3 1.2-5.5 5.2-8.3 9.7-8.3 5.4 0 9.4 3.2 9.4 8.1 0 3.8-2.1 6-6.4 8.4-5.6 3.1-10 7.1-10 14.9v1.2c0 1.6 1.3 2.9 2.9 2.9h8.2c1.6 0 2.9-1.3 2.9-2.9v-.7c0-4 1.9-5.7 6.8-8.5 6.4-3.6 10.9-8.5 10.9-16.6C88.7 44.2 78.4 36 64 36Z"
    fill="white"
    opacity="0.92"
  />
  <circle cx="64" cy="92" r="6" fill="white" opacity="0.92"/>
</svg>
